<svg width="16" height="16" viewBox="0 0 16 16" fill="none" xmlns="http://www.w3.org/2000/svg">
<path d="M2.53759 4.13763C3.13768 3.53772 3.95147 3.20071 4.79999 3.20071C5.64852 3.20071 6.46231 3.53772 7.06239 4.13763L7.99999 5.07443L8.93759 4.13763C9.23278 3.832 9.58589 3.58821 9.9763 3.4205C10.3667 3.25279 10.7866 3.16452 11.2115 3.16083C11.6364 3.15713 12.0578 3.2381 12.451 3.399C12.8443 3.5599 13.2016 3.79751 13.5021 4.09796C13.8025 4.39842 14.0401 4.75571 14.201 5.14897C14.3619 5.54224 14.4429 5.96362 14.4392 6.38851C14.4355 6.81341 14.3472 7.23331 14.1795 7.62372C14.0118 8.01414 13.768 8.36724 13.4624 8.66243L7.99999 14.1256L2.53759 8.66243C1.93769 8.06234 1.60068 7.24855 1.60068 6.40003C1.60068 5.5515 1.93769 4.73772 2.53759 4.13763Z" fill="black"/>
</svg>
