<!DOCTYPE svg PUBLIC "-//W3C//DTD SVG 1.1//EN" "http://www.w3.org/Graphics/SVG/1.1/DTD/svg11.dtd">
<!-- Uploaded to: SVG Repo, www.svgrepo.com, Transformed by: SVG Repo Mixer Tools -->
<svg fill="#ffffff" version="1.1" id="Layer_1" xmlns="http://www.w3.org/2000/svg" xmlns:xlink="http://www.w3.org/1999/xlink" width="64px" height="64px" viewBox="0 0 72 72" enable-background="new 0 0 72 72" xml:space="preserve" stroke="#ffffff">
<g id="SVGRepo_bgCarrier" stroke-width="0"/>
<g id="SVGRepo_tracerCarrier" stroke-linecap="round" stroke-linejoin="round"/>
<g id="SVGRepo_iconCarrier"> <g> <g> <path d="M65.81,68h-60c-1.104,0-2-0.896-2-2s0.896-2,2-2h60c1.104,0,2,0.896,2,2S66.914,68,65.81,68z"/> </g> <g> <path d="M23.19,53.068c0,3.828-3.104,6.932-6.932,6.932h-5.137c-3.828,0-6.932-3.104-6.932-6.932V32.932 C4.19,29.104,7.294,26,11.122,26h5.137c3.828,0,6.932,3.104,6.932,6.932V53.068z M19.19,32.932c0-1.619-1.313-2.932-2.932-2.932 h-5.137c-1.619,0-2.932,1.313-2.932,2.932v20.137C8.19,54.688,9.503,56,11.122,56h5.137c1.619,0,2.932-1.313,2.932-2.932V32.932z"/> </g> <g> <path d="M46.19,53.068c0,3.828-3.104,6.932-6.932,6.932h-5.137c-3.828,0-6.932-3.104-6.932-6.932V21.932 c0-3.828,3.104-6.932,6.932-6.932h5.137c3.828,0,6.932,3.104,6.932,6.932V53.068z M42.19,21.932c0-1.619-1.313-2.932-2.932-2.932 h-5.137c-1.619,0-2.932,1.313-2.932,2.932v31.137c0,1.619,1.313,2.932,2.932,2.932h5.137c1.619,0,2.932-1.313,2.932-2.932V21.932z "/> </g> <g> <g> <g> <path d="M56,19c-0.553,0-0.81-0.447-0.81-1v-6.038C55.19,10,56.801,10,57.456,10h2.354c0.552,0,1,0.447,1,1s-0.448,1-1,1h-2.354 c-0.336,0-0.531,0.016-0.644,0.035L56.905,18C56.905,18.553,56.552,19,56,19z"/> </g> <g> <path d="M55.81,21.18c-0.261,0-0.521-0.11-0.71-0.29c-0.181-0.189-0.29-0.45-0.29-0.71s0.109-0.52,0.29-0.71 c0.38-0.38,1.05-0.37,1.42,0c0.18,0.19,0.29,0.44,0.29,0.71c0,0.26-0.11,0.521-0.29,0.71 C56.329,21.069,56.069,21.18,55.81,21.18z"/> </g> </g> <g> <path d="M68.19,53.068c0,3.828-3.104,6.932-6.932,6.932h-5.137c-3.828,0-6.932-3.104-6.932-6.932V10.932 C49.19,7.104,52.294,4,56.122,4h5.137c3.828,0,6.932,3.104,6.932,6.932V53.068z M64.19,10.932C64.19,9.313,62.878,8,61.259,8 h-5.137c-1.619,0-2.932,1.313-2.932,2.932v42.137c0,1.619,1.313,2.932,2.932,2.932h5.137c1.619,0,2.932-1.313,2.932-2.932V10.932 z"/> </g> </g> </g> </g>
</svg>